<?xml version="1.0" encoding="UTF-8" standalone="no"?>
<!DOCTYPE svg PUBLIC "-//W3C//DTD SVG 1.1//EN" "http://www.w3.org/Graphics/SVG/1.1/DTD/svg11.dtd">
<svg width="100%" height="100%" viewBox="0 0 1000 1000" version="1.1" xmlns="http://www.w3.org/2000/svg" xmlns:xlink="http://www.w3.org/1999/xlink" xml:space="preserve" xmlns:serif="http://www.serif.com/" style="fill-rule:evenodd;clip-rule:evenodd;stroke-linejoin:round;stroke-miterlimit:2;">
    <path d="M1000,250L1000,750C1000,887.979 887.979,1000 750,1000L250,1000C112.021,1000 0,887.979 0,750L0,250C0,112.021 112.021,0 250,0L750,0C887.979,0 1000,112.021 1000,250Z" style="fill:white;"/>
    <path d="M727.563,814.472C727.563,814.472 739.607,826.834 742.536,852.091C742.875,851.413 703.259,871.595 661.334,878.276C661.334,877.785 533.903,777.936 533.351,776.833C532.799,775.73 527.834,763.593 514.595,764.145C501.355,764.697 488.588,774.075 480.314,778.488C480.865,778.488 453.326,777.348 417.504,741.527C415.85,739.872 398.748,731.046 383.854,743.182C383.854,743.182 349.367,719.39 343.583,708.98C340.825,704.015 293.475,714.093 282.883,684.966C272.291,655.839 284.104,629.243 284.097,629.387C284.032,630.721 289.854,599.49 289.854,599.49C289.572,599.49 284.488,579.719 292.961,572.375C301.434,565.032 314.709,561.36 316.969,557.406C319.228,553.452 392.099,538.934 397.183,496.115C402.267,453.297 402.213,424.616 399.124,413.583C396.035,402.55 276.149,371.952 267.53,352.558C258.91,333.164 252.202,240.351 253.967,232.408C255.732,224.464 343.555,185.187 345.32,174.595C347.085,164.003 359.883,145.468 360.766,144.585C361.649,143.703 416.814,173.712 422.551,186.952C422.551,186.952 444.175,179.008 444.175,177.243C444.175,175.478 481.246,218.285 482.129,227.995C483.012,237.704 568.057,297.117 565.146,317.251C565.257,317.627 603.121,396.798 598.811,424.811C599.021,424.806 636.867,476.92 641.838,488.67C646.809,500.419 633.572,639.021 643.915,716.596C654.258,794.172 686.151,813.135 701.666,813.997C717.181,814.859 721.634,813.781 727.563,814.472Z" style="fill:rgb(1,169,176);"/>
</svg>
